<?xml version="1.0" encoding="UTF-8" standalone="no"?>
<!-- Generator: Adobe Illustrator 21.0.0, SVG Export Plug-In . SVG Version: 6.00 Build 0)  -->

<svg
   xmlns:dc="http://purl.org/dc/elements/1.1/"
   xmlns:cc="http://creativecommons.org/ns#"
   xmlns:rdf="http://www.w3.org/1999/02/22-rdf-syntax-ns#"
   xmlns:svg="http://www.w3.org/2000/svg"
   xmlns="http://www.w3.org/2000/svg"
   xmlns:sodipodi="http://sodipodi.sourceforge.net/DTD/sodipodi-0.dtd"
   xmlns:inkscape="http://www.inkscape.org/namespaces/inkscape"
   version="1.1"
   id="Layer_1"
   x="0px"
   y="0px"
   viewBox="0 0 64 64"
   style="enable-background:new 0 0 64 64;"
   xml:space="preserve"
   width="512"
   height="512"
   inkscape:version="0.91 r13725"
   sodipodi:docname="logo.svg"
   inkscape:export-filename="/home/gram/projects/github/aspect/assets/logo.png"
   inkscape:export-xdpi="90"
   inkscape:export-ydpi="90"><metadata
     id="metadata25"><rdf:RDF><cc:Work
         rdf:about=""><dc:format>image/svg+xml</dc:format><dc:type
           rdf:resource="http://purl.org/dc/dcmitype/StillImage" /><dc:title /></cc:Work></rdf:RDF></metadata><defs
     id="defs23" /><sodipodi:namedview
     pagecolor="#ffffff"
     bordercolor="#666666"
     borderopacity="1"
     objecttolerance="10"
     gridtolerance="10"
     guidetolerance="10"
     inkscape:pageopacity="0"
     inkscape:pageshadow="2"
     inkscape:window-width="1920"
     inkscape:window-height="980"
     id="namedview21"
     showgrid="true"
     inkscape:snap-bbox="true"
     inkscape:bbox-paths="true"
     inkscape:bbox-nodes="true"
     inkscape:snap-bbox-edge-midpoints="true"
     inkscape:snap-bbox-midpoints="true"
     inkscape:zoom="2.1130339"
     inkscape:cx="256.9309"
     inkscape:cy="382.07083"
     inkscape:window-x="0"
     inkscape:window-y="34"
     inkscape:window-maximized="1"
     inkscape:current-layer="Layer_1"><inkscape:grid
       type="xygrid"
       id="grid3388" /></sodipodi:namedview><style
     type="text/css"
     id="style3">
	.st0{fill:#B6B6B7;}
	.st1{fill:#7CD7F7;}
</style><text
     xml:space="preserve"
     style="font-style:normal;font-variant:normal;font-weight:normal;font-stretch:normal;font-size:45.94218826px;line-height:125%;font-family:'UKIJ Kufi 3D';-inkscape-font-specification:'UKIJ Kufi 3D';letter-spacing:0px;word-spacing:0px;fill:#4d4d4d;fill-opacity:1;stroke:none;stroke-width:1px;stroke-linecap:butt;stroke-linejoin:miter;stroke-opacity:1;"
     x="8.0714169"
     y="22.0539"
     id="text3360"
     sodipodi:linespacing="125%"><tspan
       sodipodi:role="line"
       id="tspan3362"
       x="8.0714169"
       y="22.0539"
       style="font-style:normal;font-variant:normal;font-weight:normal;font-stretch:normal;font-size:20.41875076px;font-family:'Fluoride Beings';-inkscape-font-specification:'Fluoride Beings';fill:#4d4d4d;">AOP</tspan></text>
<g
     id="g3344"
     transform="matrix(0.5,0,0,0.5,17.095101,-0.19999975)"><rect
       transform="matrix(0,1,-1,0,0,0)"
       x="16.112486"
       y="-37.210209"
       class="st0"
       width="5.6499457"
       height="2.8499725"
       id="rect7"
       style="fill:#b6b6b7" /><rect
       transform="matrix(0,1,-1,0,0,0)"
       x="23.926081"
       y="-40.059826"
       class="st0"
       width="2.8499725"
       height="8.4999189"
       id="rect9"
       style="fill:#b6b6b7" /><polygon
       transform="matrix(-0.35355339,0.35355339,-0.35355339,-0.35355339,58.437214,30.276167)"
       class="st1"
       points="57,7 54,7 51,10 42,10 21,31 33,43 54,22 54,13 57,10 "
       id="polygon11"
       style="fill:#e6e6e6" /><rect
       transform="matrix(0,1,-1,0,0,0)"
       x="14.023382"
       y="-40.059757"
       class="st0"
       width="2.0999799"
       height="8.4999189"
       id="rect13"
       style="fill:#b6b6b7" /><rect
       transform="matrix(0,1,-1,0,0,0)"
       x="21.801626"
       y="-41.459957"
       class="st0"
       width="2.0999799"
       height="11.299891"
       id="rect15"
       style="fill:#b6b6b7" /><path
       d="m 36.304772,48.165968 0.919238,-0.919239 c 0.106066,-0.106066 0.141422,-0.212132 0.141422,-0.353553 l 0,-1.909188 3.040559,-3.040559 c 0.106066,-0.106066 0.141421,-0.212132 0.141421,-0.353554 l 0,-17.182695 0.919239,0 c 0.282843,0 0.494975,-0.212132 0.494975,-0.494974 l 0,-2.121321 c 0,-0.282842 -0.212132,-0.494974 -0.494975,-0.494974 l -3.747666,0 0,-4.666905 2.333452,0 c 0.282843,0 0.494975,-0.212132 0.494975,-0.494975 l 0,-2.12132 c 0,-0.282843 -0.212132,-0.494975 -0.494975,-0.494975 l -8.485281,0 c -0.282843,0 -0.494975,0.212132 -0.494975,0.494975 l 0,2.12132 c 0,0.282843 0.212132,0.494975 0.494975,0.494975 l 2.333452,0 0,4.666905 -3.747665,0 c -0.282843,0 -0.494974,0.212132 -0.494974,0.494974 l 0,2.121321 c 0,0.282842 0.212131,0.494974 0.494974,0.494974 l 0.919238,0 0,17.182695 c 0,0.141422 0.03536,0.247488 0.141422,0.353554 l 3.040559,3.040559 0,1.909188 c 0,0.141421 0.03536,0.247487 0.141421,0.353553 l 0.919239,0.919239 0,2.616295 0.98995,0 0,-2.616295 z m -4.242641,-33.658282 7.495332,0 0,1.131371 -7.495332,0 0,-1.131371 z m 2.828427,2.12132 1.838478,0 0,4.666905 -1.838478,0 0,-4.666905 z m -4.242641,5.656854 10.32376,0 0,1.131371 -10.32376,0 0,-1.131371 z m 8.909546,2.12132 0,1.838478 -7.495332,0 0,-1.838478 7.495332,0 z m -7.495332,16.970563 0,-14.142135 7.495332,0 0,14.142135 -2.899138,2.899138 -1.697056,0 -2.899138,-2.899138 z m 3.181981,5.303301 0,-1.414214 1.131372,0 0,1.414214 -0.565687,0.565685 -0.565685,-0.565685 z"
       id="path17"
       inkscape:connector-curvature="0" /></g><text
     xml:space="preserve"
     style="font-style:normal;font-weight:normal;font-size:22.5px;line-height:125%;font-family:sans-serif;letter-spacing:0px;word-spacing:0px;fill:#000000;fill-opacity:1;stroke:none;stroke-width:1px;stroke-linecap:butt;stroke-linejoin:miter;stroke-opacity:1"
     x="-31.633682"
     y="32.720608"
     id="text3384"
     sodipodi:linespacing="125%"><tspan
       sodipodi:role="line"
       id="tspan3386"
       x="-31.633682"
       y="32.720608" /></text>
</svg>