<?xml version="1.0" encoding="UTF-8" standalone="no"?>
<!-- Generator: Adobe Illustrator 21.0.0, SVG Export Plug-In . SVG Version: 6.00 Build 0)  -->

<svg
   xmlns:dc="http://purl.org/dc/elements/1.1/"
   xmlns:cc="http://creativecommons.org/ns#"
   xmlns:rdf="http://www.w3.org/1999/02/22-rdf-syntax-ns#"
   xmlns:svg="http://www.w3.org/2000/svg"
   xmlns="http://www.w3.org/2000/svg"
   xmlns:sodipodi="http://sodipodi.sourceforge.net/DTD/sodipodi-0.dtd"
   xmlns:inkscape="http://www.inkscape.org/namespaces/inkscape"
   version="1.1"
   id="Layer_1"
   x="0px"
   y="0px"
   viewBox="0 0 64 64"
   style="enable-background:new 0 0 64 64;"
   xml:space="preserve"
   width="512"
   height="512"
   inkscape:version="0.91 r13725"
   sodipodi:docname="logo.svg"
   inkscape:export-filename="/home/gram/projects/github/aspect/wiki/assets/logo.png"
   inkscape:export-xdpi="90"
   inkscape:export-ydpi="90"><metadata
     id="metadata25"><rdf:RDF><cc:Work
         rdf:about=""><dc:format>image/svg+xml</dc:format><dc:type
           rdf:resource="http://purl.org/dc/dcmitype/StillImage" /><dc:title></dc:title></cc:Work></rdf:RDF></metadata><defs
     id="defs23" /><sodipodi:namedview
     pagecolor="#ffffff"
     bordercolor="#666666"
     borderopacity="1"
     objecttolerance="10"
     gridtolerance="10"
     guidetolerance="10"
     inkscape:pageopacity="0"
     inkscape:pageshadow="2"
     inkscape:window-width="1920"
     inkscape:window-height="980"
     id="namedview21"
     showgrid="true"
     inkscape:snap-bbox="true"
     inkscape:bbox-paths="true"
     inkscape:bbox-nodes="true"
     inkscape:snap-bbox-edge-midpoints="true"
     inkscape:snap-bbox-midpoints="true"
     inkscape:zoom="1.3037281"
     inkscape:cx="231.27337"
     inkscape:cy="251.75197"
     inkscape:window-x="0"
     inkscape:window-y="34"
     inkscape:window-maximized="1"
     inkscape:current-layer="Layer_1"><inkscape:grid
       type="xygrid"
       id="grid3388" /></sodipodi:namedview><style
     type="text/css"
     id="style3">
	.st0{fill:#B6B6B7;}
	.st1{fill:#7CD7F7;}
</style><rect
     style="fill:#b6b6b7"
     id="rect7"
     height="5.699945"
     width="11.299891"
     class="st0"
     y="29.34918"
     x="3.7347698" /><rect
     style="fill:#b6b6b7"
     id="rect9"
     height="16.999838"
     width="5.699945"
     class="st0"
     y="23.64994"
     x="19.361958" /><polygon
     style="fill:#ffffff"
     id="polygon11"
     points="21,31 33,43 54,22 54,13 57,10 57,7 54,7 51,10 42,10 "
     class="st1"
     transform="matrix(0.70710678,0.70710678,-0.70710678,0.70710678,32.062132,-13.104834)" /><rect
     style="fill:#b6b6b7"
     id="rect13"
     height="16.999838"
     width="4.1999598"
     class="st0"
     y="23.650082"
     x="-0.44343975" /><rect
     style="fill:#b6b6b7"
     id="rect15"
     height="22.599783"
     width="4.1999598"
     class="st0"
     y="20.849684"
     x="15.11305" /><path
     inkscape:connector-curvature="0"
     id="path17"
     d="M 67.841735,31.16005 66.003257,29.321573 C 65.791125,29.109441 65.578993,29.03873 65.296151,29.03873 l -3.818377,0 -6.081118,-6.081118 C 55.184524,22.74548 54.972392,22.674769 54.689549,22.674769 l -34.36539,0 0,-1.838478 c 0,-0.565685 -0.424264,-0.989949 -0.989949,-0.989949 l -4.242641,0 c -0.565685,0 -0.989949,0.424264 -0.989949,0.989949 l 0,7.495332 -9.3338097,0 0,-4.666904 c 0,-0.565686 -0.4242641,-0.98995 -0.9899495,-0.98995 l -4.24264068,0 c -0.56568542,0 -0.98994952,0.424264 -0.98994952,0.98995 l 0,16.970562 c 0,0.565686 0.4242641,0.98995 0.98994952,0.98995 l 4.24264068,0 c 0.5656854,0 0.9899495,-0.424264 0.9899495,-0.98995 l 0,-4.666904 9.3338097,0 0,7.495331 c 0,0.565686 0.424264,0.98995 0.989949,0.98995 l 4.242641,0 c 0.565685,0 0.989949,-0.424264 0.989949,-0.98995 l 0,-1.838477 34.36539,0 c 0.282843,0 0.494975,-0.07071 0.707107,-0.282843 l 6.081118,-6.081118 3.818377,0 c 0.282842,0 0.494974,-0.07071 0.707106,-0.282843 l 1.838478,-1.838478 5.23259,0 0,-1.979899 -5.23259,0 z m -67.31656539,8.485282 0,-14.990664 2.26274169,0 0,14.990664 -2.26274169,0 z m 4.24264069,-5.656854 0,-3.676956 9.3338097,0 0,3.676956 -9.3338097,0 z m 11.3137087,8.485281 0,-20.647518 2.262741,0 0,20.647518 -2.262741,0 z m 4.24264,-17.819091 3.676956,0 0,14.990664 -3.676956,0 0,-14.990664 z m 33.941126,14.990664 -28.284271,0 0,-14.990664 28.284271,0 5.798275,5.798276 0,3.394112 -5.798275,5.798276 z m 10.606602,-6.363961 -2.828428,0 0,-2.262742 2.828428,0 1.13137,1.131371 -1.13137,1.131371 z" /><text
     xml:space="preserve"
     style="font-style:normal;font-variant:normal;font-weight:normal;font-stretch:normal;font-size:27.22500038px;line-height:125%;font-family:'UKIJ Kufi 3D';-inkscape-font-specification:'UKIJ Kufi 3D';letter-spacing:0px;word-spacing:0px;fill:#ececec;fill-opacity:1;stroke:none;stroke-width:1px;stroke-linecap:butt;stroke-linejoin:miter;stroke-opacity:1"
     x="27.167322"
     y="36.041199"
     id="text3360"
     sodipodi:linespacing="125%"><tspan
       sodipodi:role="line"
       id="tspan3362"
       x="27.167322"
       y="36.041199"
       style="font-style:normal;font-variant:normal;font-weight:normal;font-stretch:normal;font-size:12.10000038px;font-family:'Fluoride Beings';-inkscape-font-specification:'Fluoride Beings';fill:#800000">AOP</tspan></text>
<text
     xml:space="preserve"
     style="font-style:normal;font-weight:normal;font-size:22.5px;line-height:125%;font-family:sans-serif;letter-spacing:0px;word-spacing:0px;fill:#000000;fill-opacity:1;stroke:none;stroke-width:1px;stroke-linecap:butt;stroke-linejoin:miter;stroke-opacity:1"
     x="-31.633682"
     y="32.720608"
     id="text3384"
     sodipodi:linespacing="125%"><tspan
       sodipodi:role="line"
       id="tspan3386"
       x="-31.633682"
       y="32.720608" /></text>
</svg>